<svg width="44" height="54" viewBox="0 0 44 54" fill="none" xmlns="http://www.w3.org/2000/svg">
<path d="M23.8932 25.1068C23.6396 24.8641 23.3405 24.6737 23.0132 24.5468C22.3639 24.2801 21.6357 24.2801 20.9865 24.5468C20.6592 24.6737 20.3601 24.8641 20.1065 25.1068L14.7732 30.4402C14.271 30.9423 13.9889 31.6234 13.9889 32.3335C13.9889 33.0436 14.271 33.7247 14.7732 34.2268C15.2753 34.729 15.9564 35.0111 16.6665 35.0111C17.3766 35.0111 18.0577 34.729 18.5598 34.2268L19.3332 33.4268V40.3335C19.3332 41.0407 19.6141 41.719 20.1142 42.2191C20.6143 42.7192 21.2926 43.0002 21.9998 43.0002C22.7071 43.0002 23.3854 42.7192 23.8855 42.2191C24.3856 41.719 24.6665 41.0407 24.6665 40.3335V33.4268L25.4398 34.2268C25.6877 34.4768 25.9827 34.6752 26.3076 34.8105C26.6326 34.9459 26.9811 35.0156 27.3332 35.0156C27.6852 35.0156 28.0338 34.9459 28.3587 34.8105C28.6837 34.6752 28.9786 34.4768 29.2265 34.2268C29.4764 33.9789 29.6748 33.684 29.8102 33.359C29.9456 33.0341 30.0153 32.6855 30.0153 32.3335C30.0153 31.9815 29.9456 31.6329 29.8102 31.308C29.6748 30.983 29.4764 30.6881 29.2265 30.4402L23.8932 25.1068ZM43.3332 18.8402C43.3054 18.5952 43.2518 18.3538 43.1732 18.1202V17.8802C43.045 17.606 42.8739 17.3539 42.6665 17.1335L26.6665 1.1335C26.4461 0.926072 26.194 0.755045 25.9198 0.626829H25.6532C25.3939 0.488171 25.1152 0.389288 24.8265 0.333496H8.6665C6.54477 0.333496 4.50994 1.17635 3.00965 2.67664C1.50936 4.17693 0.666504 6.21176 0.666504 8.3335V45.6668C0.666504 47.7886 1.50936 49.8234 3.00965 51.3237C4.50994 52.824 6.54477 53.6668 8.6665 53.6668H35.3332C37.4549 53.6668 39.4897 52.824 40.99 51.3237C42.4903 49.8234 43.3332 47.7886 43.3332 45.6668V19.0002C43.3332 19.0002 43.3332 19.0002 43.3332 18.8402ZM27.3332 9.42683L34.2398 16.3335H29.9998C29.2926 16.3335 28.6143 16.0525 28.1142 15.5524C27.6141 15.0523 27.3332 14.3741 27.3332 13.6668V9.42683ZM37.9998 45.6668C37.9998 46.3741 37.7189 47.0523 37.2188 47.5524C36.7187 48.0525 36.0404 48.3335 35.3332 48.3335H8.6665C7.95926 48.3335 7.28098 48.0525 6.78089 47.5524C6.28079 47.0523 5.99984 46.3741 5.99984 45.6668V8.3335C5.99984 7.62625 6.28079 6.94798 6.78089 6.44788C7.28098 5.94778 7.95926 5.66683 8.6665 5.66683H21.9998V13.6668C21.9998 15.7886 22.8427 17.8234 24.343 19.3237C25.8433 20.824 27.8781 21.6668 29.9998 21.6668H37.9998V45.6668Z" fill="#191919"/>
</svg>
