<svg width="20" height="21" viewBox="0 0 20 21" fill="none" xmlns="http://www.w3.org/2000/svg">
<path d="M16.0002 13.0001C15.4093 13.004 14.8267 13.1388 14.2942 13.3947C13.7616 13.6506 13.2924 14.0213 12.9202 14.4801L7.82015 12.1301C8.05994 11.3959 8.05994 10.6044 7.82015 9.87011L12.9202 7.52011C13.5218 8.24608 14.3605 8.73619 15.2883 8.90395C16.2161 9.07172 17.1734 8.90634 17.9911 8.43702C18.8088 7.96769 19.4345 7.22459 19.7577 6.33886C20.0809 5.45312 20.0808 4.4817 19.7575 3.59602C19.4341 2.71035 18.8083 1.96736 17.9905 1.49818C17.1726 1.02901 16.2154 0.863808 15.2876 1.03174C14.3598 1.19967 13.5212 1.68993 12.9197 2.41601C12.3182 3.14208 11.9925 4.05729 12.0002 5.00011C12.0032 5.23835 12.0266 5.47588 12.0702 5.71011L6.79015 8.14011C6.22723 7.58969 5.5144 7.21763 4.74096 7.07054C3.96752 6.92345 3.16787 7.00788 2.4422 7.31325C1.71653 7.61861 1.09711 8.13133 0.66155 8.78718C0.225988 9.44302 -0.00634766 10.2128 -0.00634766 11.0001C-0.00634766 11.7874 0.225988 12.5572 0.66155 13.2131C1.09711 13.8689 1.71653 14.3816 2.4422 14.687C3.16787 14.9923 3.96752 15.0768 4.74096 14.9297C5.5144 14.7826 6.22723 14.4105 6.79015 13.8601L12.0702 16.2901C12.0266 16.5243 12.0032 16.7619 12.0002 17.0001C12.0002 17.7912 12.2347 18.5646 12.6743 19.2224C13.1138 19.8802 13.7385 20.3929 14.4694 20.6956C15.2003 20.9984 16.0046 21.0776 16.7805 20.9233C17.5564 20.7689 18.2692 20.388 18.8286 19.8285C19.388 19.2691 19.769 18.5564 19.9233 17.7805C20.0776 17.0046 19.9984 16.2003 19.6957 15.4694C19.3929 14.7385 18.8802 14.1138 18.2224 13.6742C17.5646 13.2347 16.7913 13.0001 16.0002 13.0001ZM16.0002 3.00011C16.3957 3.00011 16.7824 3.11741 17.1113 3.33718C17.4402 3.55694 17.6965 3.8693 17.8479 4.23475C17.9993 4.6002 18.0389 5.00233 17.9617 5.3903C17.8846 5.77826 17.6941 6.13462 17.4144 6.41433C17.1347 6.69403 16.7783 6.88451 16.3903 6.96169C16.0024 7.03886 15.6002 6.99925 15.2348 6.84787C14.8693 6.6965 14.557 6.44015 14.3372 6.11125C14.1174 5.78236 14.0002 5.39568 14.0002 5.00011C14.0002 4.46968 14.2109 3.96097 14.5859 3.5859C14.961 3.21083 15.4697 3.00011 16.0002 3.00011ZM4.00015 13.0001C3.60459 13.0001 3.21791 12.8828 2.88901 12.6631C2.56011 12.4433 2.30377 12.1309 2.15239 11.7655C2.00102 11.4 1.96141 10.9979 2.03858 10.6099C2.11575 10.222 2.30623 9.86561 2.58594 9.5859C2.86564 9.3062 3.22201 9.11571 3.60997 9.03854C3.99793 8.96137 4.40006 9.00098 4.76552 9.15236C5.13097 9.30373 5.44333 9.56008 5.66309 9.88897C5.88285 10.2179 6.00015 10.6046 6.00015 11.0001C6.00015 11.5305 5.78944 12.0393 5.41436 12.4143C5.03929 12.7894 4.53058 13.0001 4.00015 13.0001ZM16.0002 19.0001C15.6046 19.0001 15.2179 18.8828 14.889 18.6631C14.5601 18.4433 14.3038 18.1309 14.1524 17.7655C14.001 17.4 13.9614 16.9979 14.0386 16.6099C14.1158 16.222 14.3062 15.8656 14.5859 15.5859C14.8656 15.3062 15.222 15.1157 15.61 15.0385C15.9979 14.9614 16.4001 15.001 16.7655 15.1524C17.131 15.3037 17.4433 15.5601 17.6631 15.889C17.8829 16.2179 18.0002 16.6046 18.0002 17.0001C18.0002 17.5305 17.7894 18.0393 17.4144 18.4143C17.0393 18.7894 16.5306 19.0001 16.0002 19.0001Z" fill="#191919"/>
</svg>
