<svg width="9" height="6" viewBox="0 0 9 6" fill="none" xmlns="http://www.w3.org/2000/svg">
<g clip-path="url(#clip0_110_215)">
<path d="M0 0H8.8V6H0V0Z" fill="white"/>
<path d="M0 0H8.8V0.461403H0V0ZM0 0.922807H8.8V1.38421H0V0.922807ZM0 1.84561H8.8V2.30702H0V1.84561ZM0 2.76842H8.8V3.22982H0V2.76842ZM0 3.69298H8.8V4.15439H0V3.69298ZM0 4.61579H8.8V5.07719H0V4.61579ZM0 5.5386H8.8V6H0V5.5386Z" fill="#D80027"/>
<path d="M0 0H4.4V3.22983H0V0Z" fill="#2E52B2"/>
<path d="M0.819745 2.43684L0.751129 2.21228L0.675652 2.43684H0.449219L0.632767 2.57193L0.564151 2.79649L0.751129 2.6579L0.932961 2.79649L0.86263 2.57193L1.04961 2.43684H0.819745ZM1.78551 2.43684L1.71518 2.21228L1.64314 2.43684H1.4167L1.60025 2.57193L1.53164 2.79649L1.71518 2.6579L1.90045 2.79649L1.83183 2.57193L2.01538 2.43684H1.78551ZM2.75472 2.43684L2.68095 2.21228L2.61234 2.43684H2.38076L2.56945 2.57193L2.49741 2.79649L2.68095 2.6579L2.86965 2.79649L2.7976 2.57193L2.98115 2.43684H2.75472ZM3.71877 2.43684L3.65015 2.21228L3.57811 2.43684H3.34996L3.53522 2.57193L3.46661 2.79649L3.65015 2.6579L3.83542 2.79649L3.76166 2.57193L3.95035 2.43684H3.71877ZM1.71518 1.32105L1.64314 1.54562H1.4167L1.60025 1.68421L1.53164 1.90526L1.71518 1.76842L1.90045 1.90526L1.83183 1.68421L2.01538 1.54562H1.78551L1.71518 1.32105ZM0.751129 1.32105L0.675652 1.54562H0.449219L0.632767 1.68421L0.564151 1.90526L0.751129 1.76842L0.932961 1.90526L0.86263 1.68421L1.04961 1.54562H0.819745L0.751129 1.32105ZM2.68095 1.32105L2.61234 1.54562H2.38076L2.56945 1.68421L2.49741 1.90526L2.68095 1.76842L2.86965 1.90526L2.7976 1.68421L2.98115 1.54562H2.75472L2.68095 1.32105ZM3.65015 1.32105L3.57811 1.54562H3.34996L3.53522 1.68421L3.46661 1.90526L3.65015 1.76842L3.83542 1.90526L3.76166 1.68421L3.95035 1.54562H3.71877L3.65015 1.32105ZM0.751129 0.433334L0.675652 0.654387H0.449219L0.632767 0.792984L0.564151 1.01579L0.751129 0.877194L0.932961 1.01579L0.86263 0.792984L1.04961 0.654387H0.819745L0.751129 0.433334ZM1.71518 0.433334L1.64314 0.654387H1.4167L1.60025 0.792984L1.53164 1.01579L1.71518 0.877194L1.90045 1.01579L1.83183 0.792984L2.01538 0.654387H1.78551L1.71518 0.433334ZM2.68095 0.433334L2.61234 0.654387H2.38076L2.56945 0.792984L2.49741 1.01579L2.68095 0.877194L2.86965 1.01579L2.7976 0.792984L2.98115 0.654387H2.75472L2.68095 0.433334ZM3.65015 0.433334L3.57811 0.654387H3.34996L3.53522 0.792984L3.46661 1.01579L3.65015 0.877194L3.83542 1.01579L3.76166 0.792984L3.95035 0.654387H3.71877L3.65015 0.433334Z" fill="white"/>
</g>
<defs>
<clipPath id="clip0_110_215">
<rect width="8.8" height="6" fill="white"/>
</clipPath>
</defs>
</svg>
